<?xml version="1.0" encoding="iso-8859-1"?>
<!-- Uploaded to: SVG Repo, www.svgrepo.com, Generator: SVG Repo Mixer Tools -->
<svg fill="#000000" height="800px" width="800px" version="1.1" id="Layer_1" xmlns="http://www.w3.org/2000/svg" xmlns:xlink="http://www.w3.org/1999/xlink" 
	 viewBox="0 0 512 512" xml:space="preserve">
<g transform="translate(-1)">
	<g>
		<path d="M350.867,51.2c4.713,0,8.533-3.82,8.533-8.533V8.533C359.4,3.82,355.579,0,350.867,0H163.133
			c-4.713,0-8.533,3.82-8.533,8.533v34.133c0,4.713,3.82,8.533,8.533,8.533h8.533v51.2h-8.533c-5.824,0-9.937,5.706-8.095,11.232
			l17.067,51.2c1.161,3.485,4.422,5.835,8.095,5.835h25.6v42.667c0,4.713,3.82,8.533,8.533,8.533h8.533v17.067h-8.533
			c-4.713,0-8.533,3.82-8.533,8.533s3.82,8.533,8.533,8.533h8.533v17.067h-8.533c-4.713,0-8.533,3.821-8.533,8.533
			s3.82,8.533,8.533,8.533h8.533V307.2h-8.533c-4.713,0-8.533,3.82-8.533,8.533s3.82,8.533,8.533,8.533h8.533v17.067h-8.533
			c-4.713,0-8.533,3.82-8.533,8.533s3.82,8.533,8.533,8.533h8.533v17.067h-8.533c-4.713,0-8.533,3.82-8.533,8.533
			s3.82,8.533,8.533,8.533h8.533V409.6h-8.533c-4.713,0-8.533,3.82-8.533,8.533s3.82,8.533,8.533,8.533h8.533v17.067h-8.533
			c-4.713,0-8.533,3.821-8.533,8.533c0,4.713,3.82,8.533,8.533,8.533h8.533v17.067h-8.533c-4.713,0-8.533,3.82-8.533,8.533
			s3.82,8.533,8.533,8.533h13.111C233.346,505.133,244.367,512,257,512c12.633,0,23.654-6.867,29.556-17.067h13.111
			c4.713,0,8.533-3.82,8.533-8.533s-3.82-8.533-8.533-8.533h-8.533V460.8h8.533c4.713,0,8.533-3.821,8.533-8.533
			c0-4.713-3.82-8.533-8.533-8.533h-8.533v-17.067h8.533c4.713,0,8.533-3.82,8.533-8.533s-3.82-8.533-8.533-8.533h-8.533v-17.067
			h8.533c4.713,0,8.533-3.82,8.533-8.533s-3.82-8.533-8.533-8.533h-8.533V358.4h8.533c4.713,0,8.533-3.82,8.533-8.533
			s-3.82-8.533-8.533-8.533h-8.533v-17.067h8.533c4.713,0,8.533-3.82,8.533-8.533s-3.82-8.533-8.533-8.533h-8.533v-17.067h8.533
			c4.713,0,8.533-3.82,8.533-8.533s-3.82-8.533-8.533-8.533h-8.533V256h8.533c4.713,0,8.533-3.82,8.533-8.533
			s-3.82-8.533-8.533-8.533h-8.533v-17.067h8.533c4.713,0,8.533-3.821,8.533-8.533v-42.667h25.6c3.673,0,6.934-2.35,8.095-5.835
			l17.067-51.2c1.842-5.526-2.271-11.232-8.095-11.232h-8.533V51.2H350.867z M171.667,17.067h170.667v17.067H333.8H180.2h-8.533
			V17.067z M274.067,477.867c0,9.427-7.64,17.067-17.067,17.067c-9.427,0-17.067-7.64-17.067-17.067v-256h34.133V477.867z
			 M291.133,204.8H282.6h-51.2h-8.533v-34.133h68.267V204.8z M327.65,153.6h-27.983h-85.333H186.35l-11.378-34.133h5.227h153.6
			h5.227L327.65,153.6z M325.267,102.4H188.733V51.2h136.533V102.4z"/>
	</g>
</g>
</svg>