<svg id="line" xmlns="http://www.w3.org/2000/svg" viewBox="0 0 64 64"><defs><style>.cls-1{fill:#c4a2fc;}.cls-2{fill:#151a6a;}</style></defs><polygon class="cls-1" points="39.5 54.62 39.5 63 45.5 63 45.5 54.62 42.5 53.12 39.5 54.62"/><path class="cls-1" d="M60.49,28.66l-7.62-6.78c-1.8-1.59-4.37-.91-4.37,1.17V37a1,1,0,0,1-.42.82l-5,3.57a1,1,0,0,1-1.16,0l-5-3.57A1,1,0,0,1,36.5,37V23.05c0-2.07-2.57-2.77-4.37-1.17l-7.62,6.78a3,3,0,0,0-1,2.24V43.17a3,3,0,0,0,.88,2.12l6.83,6.83a1.05,1.05,0,0,1,.29.71V62a1,1,0,0,0,1,1h5V54a1,1,0,0,1,.55-.89l4-2a1,1,0,0,1,.9,0l4,2a1,1,0,0,1,.55.89v9h5a1,1,0,0,0,1-1V52.83a1.05,1.05,0,0,1,.29-.71l6.83-6.83a3,3,0,0,0,.88-2.12V30.9A3,3,0,0,0,60.49,28.66Z"/><path class="cls-2" d="M42.47,21.17A18.06,18.06,0,0,0,29.41,4.68h0l0-.52A3,3,0,0,0,26.4,1H20.6a3,3,0,0,0-3,3.15l0,.52h0A18.06,18.06,0,0,0,4.53,21.17,3,3,0,0,0,2.5,24v2A3,3,0,0,0,4,28.58V31.5a1,1,0,0,0,.94,1l3.27.18a15.74,15.74,0,0,0,1.6,3.6L7.55,38.79a1,1,0,0,0,0,1.38l4.24,4.24a1,1,0,0,0,1.38,0l2.67-2.4a16.34,16.34,0,0,0,3.43,1.39l.19,3.61a1,1,0,0,0,1,1h6a1,1,0,0,0,1-1l.19-3.61a16.21,16.21,0,0,0,3.44-1.39l2.66,2.4a1,1,0,0,0,1.38,0l4.24-4.24a1,1,0,0,0,0-1.38l-2.26-2.51a15.86,15.86,0,0,0,1.6-3.61l3.26-.17a1,1,0,0,0,1-1V28.58A3,3,0,0,0,44.5,26V24A3,3,0,0,0,42.47,21.17ZM34.64,9.64l-2,2.78a1,1,0,0,0,.24,1.4,1,1,0,0,0,1.4-.24L36.12,11a16,16,0,0,1,4.35,10H28.55l.71-14.27A16,16,0,0,1,34.64,9.64ZM20.6,3h5.8a1,1,0,0,1,1,1l-.85,17h-6.1L19.6,4.05A1,1,0,0,1,20.6,3Zm-9.72,8,1.8,2.56a1,1,0,0,0,1.64-1.16l-2-2.78a16,16,0,0,1,5.38-2.91L18.45,21H6.53A16,16,0,0,1,10.88,11ZM4.5,24a1,1,0,0,1,1-1h36a1,1,0,0,1,1,1v2a1,1,0,0,1-1,1H5.5a1,1,0,0,1-1-1Zm24.91,5a6,6,0,0,1-11.82,0ZM38,30.71a1,1,0,0,0-.92.75,14.13,14.13,0,0,1-1.94,4.37,1,1,0,0,0,.08,1.23l2.13,2.36-2.9,2.91-2.49-2.25A1,1,0,0,0,30.74,40a13.94,13.94,0,0,1-4.23,1.71,1,1,0,0,0-.78.92L25.55,46h-4.1l-.18-3.41a1,1,0,0,0-.78-.92A14,14,0,0,1,16.27,40a1,1,0,0,0-1.18.11l-2.51,2.25L9.67,39.42,11.8,37a1,1,0,0,0,.08-1.22A14.13,14.13,0,0,1,10,31.47,1,1,0,0,0,9,30.72l-3-.17V29h9.57a8,8,0,0,0,15.86,0H41v1.55Z"/><path class="cls-2" d="M23.5,9a1,1,0,0,0,1-1V6a1,1,0,0,0-2,0V8A1,1,0,0,0,23.5,9Z"/></svg>